<svg xmlns="http://www.w3.org/2000/svg" viewBox="0 0 36 36"><path fill="#C1694F" d="M33.91 14.37c-.03-1.02-1.63-2.06-3.91-3.37S17.04 5.53 10.76 7.8C8.7 8.52 9.13 11 8.56 11c-1 0-2.73-.34-4.95-.13C1.35 11.1.69 12.57.69 15s.56 7.98 1.87 9.53c1.65 1.94 5.85 1.95 6.75-.68.69.12 1.12.18 1.82 1.07C13.25 29.32 14.05 36 15 36c.96 0 2.53-4.4 2.91-7l9.13-1.45C27.18 30.03 27.8 36 29 36c1.02 0 3.24-4.88 4.35-12.24.31-1.62.53-3.7.61-6.32.03.17.04.36.04.56v8a1 1 0 1 0 2 0v-8c0-1.8-.75-3.05-2.09-3.63z"/><path fill="#662113" d="M1.06 19.63s-1.92-6.82.09-9.09 7.72 0 7.72 0-.18-2.97 1.6-3.59 8.8-1.7 16.89 2.85c-3.4.87-4.3 2.56-3.94 6.36S22.48 28.42 18 29.53s-7.98.4-8.69-5.68 1.04-8.39-1.32-10.1c-6.32-.91-6.93 5.88-6.93 5.88z"/><circle fill="#292F33" cx="7" cy="18" r="1"/><path fill="#D99E82" d="M3.69 22.21c0 1.1.3 1.8-.8 1.8S.91 22.95.72 21.82c-.19-1.08.61-.98 1.7-.98s1.27.27 1.27 1.36z"/><path fill="#99AAB5" d="M7.47 13.22c1.74-.56 2.8-2.43 2.33-4.08-.21-.78-1.27-2.38-1.85-2.2s1.6 3.14-1.8 4.14c-1.16.35.16 2.5 1.32 2.14z"/></svg>